ffmpeg version 3.4.8-0ubuntu0.2 Copyright (c) 2000-2020 the FFmpeg developers
  built with gcc 7 (Ubuntu 7.5.0-3ubuntu1~18.04)
  configuration: --prefix=/usr --extra-version=0ubuntu0.2 --toolchain=hardened --libdir=/usr/lib/x86_64-linux-gnu --incdir=/usr/include/x86_64-linux-gnu --enable-gpl --disable-stripping --enable-avresample --enable-avisynth --enable-gnutls --enable-ladspa --enable-libass --enable-libbluray --enable-libbs2b --enable-libcaca --enable-libcdio --enable-libflite --enable-libfontconfig --enable-libfreetype --enable-libfribidi --enable-libgme --enable-libgsm --enable-libmp3lame --enable-libmysofa --enable-libopenjpeg --enable-libopenmpt --enable-libopus --enable-libpulse --enable-librubberband --enable-librsvg --enable-libshine --enable-libsnappy --enable-libsoxr --enable-libspeex --enable-libssh --enable-libtheora --enable-libtwolame --enable-libvorbis --enable-libvpx --enable-libwavpack --enable-libwebp --enable-libx265 --enable-libxml2 --enable-libxvid --enable-libzmq --enable-libzvbi --enable-omx --enable-openal --enable-opengl --enable-sdl2 --enable-libdc1394 --enable-libdrm --enable-libiec61883 --enable-chromaprint --enable-frei0r --enable-libopencv --enable-libx264 --enable-shared
  libavutil      55. 78.100 / 55. 78.100
  libavcodec     57.107.100 / 57.107.100
  libavformat    57. 83.100 / 57. 83.100
  libavdevice    57. 10.100 / 57. 10.100
  libavfilter     6.107.100 /  6.107.100
  libavresample   3.  7.  0 /  3.  7.  0
  libswscale      4.  8.100 /  4.  8.100
  libswresample   2.  9.100 /  2.  9.100
  libpostproc    54.  7.100 / 54.  7.100
[rawvideo @ 0x5638f4212a20] Estimating duration from bitrate, this may be inaccurate
Input #0, rawvideo, from '../../SVC-Encoder-20220109T061506Z-001/SVC-Encoder/Dataset/RollerCoaster/ERP_8x8/tile_yuv/Tile_28_480x240.yuv':
  Duration: 00:00:10.00, start: 0.000000, bitrate: 41472 kb/s
    Stream #0:0: Video: rawvideo (I420 / 0x30323449), yuv420p, 480x240, 41472 kb/s, 30 tbr, 30 tbn, 30 tbc
Stream mapping:
  Stream #0:0 -> #0:0 (rawvideo (native) -> h264 (libx264))
Press [q] to stop, [?] for help
[libx264 @ 0x5638f421fc60] using cpu capabilities: MMX2 SSE2Fast LZCNT SSSE3 SSE4.2 AVX
[libx264 @ 0x5638f421fc60] profile High, level 2.1
Output #0, rawvideo, to 'RollerCoaster_Tile_28_480x240_x264_QP_20.h264':
  Metadata:
    encoder         : Lavf57.83.100
    Stream #0:0: Video: h264 (libx264), yuv420p, 480x240, q=-1--1, 30 fps, 30 tbn, 30 tbc
    Metadata:
      encoder         : Lavc57.107.100 libx264
    Side data:
      cpb: bitrate max/min/avg: 0/0/0 buffer size: 0 vbv_delay: -1
frame=  300 fps=0.0 q=26.0 LPSNR=Y:inf U:inf V:inf *:inf size=      61kB time=00:00:09.93 bitrate=  50.6kbits/s speed=22.1x    
video:61kB audio:0kB subtitle:0kB other streams:0kB global headers:0kB muxing overhead: 0.000000%
[libx264 @ 0x5638f421fc60] frame I:2     Avg QP:19.88  size:  2152  PSNR Mean Y:55.27 U:56.89 V:58.59 Avg:55.93 Global:55.84
[libx264 @ 0x5638f421fc60] frame P:81    Avg QP:20.27  size:   518  PSNR Mean Y:54.33 U:55.34 V:57.18 Avg:54.86 Global:54.75
[libx264 @ 0x5638f421fc60] frame B:217   Avg QP:25.60  size:    76  PSNR Mean Y:54.00 U:55.15 V:56.88 Avg:54.54 Global:54.45
[libx264 @ 0x5638f421fc60] consecutive B-frames:  1.0%  6.7%  3.0% 89.3%
[libx264 @ 0x5638f421fc60] mb I  I16..4: 81.7% 15.2%  3.1%
[libx264 @ 0x5638f421fc60] mb P  I16..4:  5.8%  2.6%  0.1%  P16..4: 12.8%  2.3%  0.6%  0.0%  0.0%    skip:75.8%
[libx264 @ 0x5638f421fc60] mb B  I16..4:  0.0%  0.0%  0.0%  B16..8:  5.2%  0.7%  0.0%  direct: 0.0%  skip:94.0%  L0:39.7% L1:56.0% BI: 4.2%
[libx264 @ 0x5638f421fc60] 8x8 transform intra:27.4% inter:69.5%
[libx264 @ 0x5638f421fc60] coded y,uvDC,uvAC intra: 5.6% 29.3% 5.7% inter: 1.0% 2.2% 0.1%
[libx264 @ 0x5638f421fc60] i16 v,h,dc,p: 55% 20% 15% 11%
[libx264 @ 0x5638f421fc60] i8 v,h,dc,ddl,ddr,vr,hd,vl,hu: 22% 15% 55%  1%  1%  3%  1%  1%  0%
[libx264 @ 0x5638f421fc60] i4 v,h,dc,ddl,ddr,vr,hd,vl,hu: 18% 20% 30%  2%  5% 15%  4%  3%  3%
[libx264 @ 0x5638f421fc60] i8c dc,h,v,p: 59% 20% 20%  2%
[libx264 @ 0x5638f421fc60] Weighted P-Frames: Y:7.4% UV:0.0%
[libx264 @ 0x5638f421fc60] ref P L0: 79.6%  4.2% 11.5%  4.3%  0.4%
[libx264 @ 0x5638f421fc60] ref B L0: 90.4%  8.6%  0.9%
[libx264 @ 0x5638f421fc60] ref B L1: 95.6%  4.4%
[libx264 @ 0x5638f421fc60] PSNR Mean Y:54.102 U:55.215 V:56.976 Avg:54.638 Global:54.539 kb/s:50.25
